<svg version="1.0" xmlns="http://www.w3.org/2000/svg" width="40" height="40" viewBox="0 0 1000 1000"><path fill="#fff" d="M819 389c-5 1-10 6.5-11.5 12.5s-12.5 53.5-25 105-22.5 96.5-22.5 99c0 3 6 4.5 13.5 3.5 13.5-1.5 14-3 40-109 14.5-59 26-109 26.5-110.5 0-3-8-3.5-21-.5zM635 500v105h35V395h-35v105zm-205-46.5c-4 1.5-12.5 7.5-18.5 13l-11.5 10V466c0-9-3-11-17.5-11H365v150h40v-54c0-60 5-71 32-71 18.5 0 23 15 23 75.5V605h34l2-52c1.5-56 9-73 31.5-73 19.5 0 22.5 9 22.5 68.5V605h40v-62c0-57.5-1-63.5-11.5-75.5C562 448 533 445.5 509 462c-14.5 9.5-19.5 11-22.5 6-9-14.5-36.5-22-56.5-14.5zm-362.5 31C3 513 2.5 513 1 530.5L-.5 548 66 577c36.5 16 69.5 30 73 31.5 4 2 6-3.5 6-17.5v-20.5L94 551c-46.5-18-50.5-20.5-39-25 7-2.5 30-11 51-19l39-14.5v-19c0-11.5-2.5-18.5-6-18-3.5 0-35.5 13-71.5 29zm142.5 5c13.5 19 25 36 25 38s-9.5 17.5-21.5 34.5c-11.5 16.5-23 33.5-25 36.5-3 5 1.5 6.5 18 6.5 21.5 0 23.5-1.5 37-22.5C251 570 258.5 560 260 560s8.5 10 16 22.5c13.5 22 14.5 22.5 39 22.5h25l-27.5-37c-15-20.5-27.5-39-27.5-41s11-19 25-38l25-34h-24c-22 0-24.5 1-36 20-7 11-13.5 20-15 20s-8-9-15-20c-11.5-19-14-20-36-20h-24l25 34.5zm646-16c1.5 18.5 2 18.5 47.5 36 25 10 47 19 48.5 20.5 1 1.5-20 11.5-47.5 22L855 571.5v20c0 13.5 2 19 6.5 17 3-1.5 36-15.5 72.5-31l66.5-29L999 531c-1.5-18-1.5-18-68.5-47-37-16-69.5-29-71.5-29"/></svg>